<?xml version="1.0" encoding="utf-8"?>
<!-- Generator: Adobe Illustrator 27.0.0, SVG Export Plug-In . SVG Version: 6.00 Build 0)  -->
<svg version="1.1" xmlns="http://www.w3.org/2000/svg" xmlns:xlink="http://www.w3.org/1999/xlink" x="0px" y="0px"
	 viewBox="0 0 100 100" style="enable-background:new 0 0 100 100;" xml:space="preserve">
<style type="text/css">
	.st0{fill:#87CFE5;stroke:#000000;stroke-miterlimit:10;}
	.st1{fill:none;stroke:#000000;stroke-miterlimit:10;}
	.st2{fill:#275BA7;stroke:#000000;stroke-miterlimit:10;}
	.st3{fill:#E62C35;}
</style>
<g id="Слой_1">
	<path class="st0" d="M49.44,4.48c-25.24,0-45.7,20.46-45.7,45.7c0,0.02,0,0.04,0,0.06c0.1-0.01,0.19-0.02,0.29-0.02
		c0.44,0.06,0.89,0.12,1.33,0.18c0.06,0.02,0.12,0.05,0.18,0.07c0.31-0.1,0.64-0.18,0.97-0.19c0.64-0.14,1.29-0.12,1.93,0.07
		c0.57-0.09,1.13-0.06,1.7,0.11c0.99-0.36,2.06-0.4,3.1-0.17c0.14,0.03,0.28,0.07,0.42,0.1c0.37-0.1,0.74-0.15,1.14-0.13
		c0.69-0.03,1.33,0.12,1.93,0.43c0.24,0.08,0.46,0.2,0.68,0.32c0.06,0.01,0.12,0.03,0.18,0.03c0.32-0.14,0.65-0.24,0.98-0.31
		c0.09-0.04,0.19-0.08,0.28-0.1c0.36-0.07,0.99-0.14,1.36-0.18c0.03,0,0.06-0.01,0.08-0.01c0.09-0.01,0.19,0,0.28,0
		c0.46,0,0.9,0.07,1.32,0.19c0.22-0.05,0.45-0.09,0.68-0.1c0.64-0.14,1.28-0.12,1.92,0.07c0.58-0.09,1.16-0.05,1.73,0.13
		c0.04,0,0.08-0.01,0.12-0.01c0.66-0.15,1.33-0.12,1.99,0.09c0.07,0.02,0.14,0.04,0.21,0.07c0.26,0.1,0.51,0.22,0.77,0.33
		c0.13,0.03,0.27,0.06,0.4,0.1c0.37-0.21,0.76-0.38,1.19-0.5c0.44-0.06,0.89-0.12,1.33-0.18c0.38-0.01,0.74,0.03,1.09,0.12
		c0.05-0.01,0.09-0.03,0.14-0.05c0.44-0.06,0.89-0.12,1.33-0.18c0.46-0.02,0.89,0.05,1.3,0.18c0.44-0.06,0.88-0.12,1.33-0.18
		c0.55-0.02,1.08,0.08,1.58,0.26c0.5-0.17,1.06-0.26,1.68-0.26c0.2,0,0.4,0.01,0.59,0.03c0.31-0.06,0.63-0.1,0.96-0.1
		c0.44,0.06,0.89,0.12,1.33,0.18c0.33,0.09,0.64,0.23,0.94,0.38c0.11-0.04,0.21-0.09,0.33-0.12c0.51-0.16,1.02-0.21,1.52-0.16
		c0.13-0.06,0.27-0.11,0.4-0.17c0.66-0.21,1.33-0.24,1.99-0.09c0.58,0.03,1.12,0.19,1.62,0.47c0.04-0.01,0.08-0.04,0.12-0.05
		c0.3-0.07,0.59-0.15,0.89-0.22c0.63-0.17,1.26-0.21,1.9-0.14c0.32-0.01,0.63,0.02,0.95,0.09c0.21,0.01,0.42,0.05,0.62,0.1
		c0.15,0.02,0.3,0.05,0.45,0.08c0.02,0,0.04,0,0.06,0c0.15,0.01,0.29,0.02,0.43,0.04c0.25-0.04,0.5-0.06,0.77-0.05
		c0.33,0,0.67,0,1-0.04c0.04,0,0.08,0.01,0.12,0.01c0.31-0.07,0.63-0.09,0.96-0.08c0.13,0,0.26-0.01,0.39-0.02
		c0.32-0.02,0.63,0,0.95,0.04c0.33-0.08,0.67-0.11,1.03-0.1c0.17,0,0.34-0.03,0.52-0.04c0.15,0,0.3,0.02,0.45,0.03
		c0.2-0.02,0.41-0.04,0.62-0.03h0.78c0.45,0,0.87,0.08,1.28,0.2c0.15,0,0.29,0,0.44,0.01c0.12-0.01,0.23-0.03,0.35-0.02
		c0.13,0,0.25-0.01,0.38-0.02c0.26-0.04,0.53-0.07,0.81-0.06c0.12,0,0.23,0,0.35,0.01c0.23-0.04,0.46-0.08,0.71-0.08
		c0.33-0.04,0.66-0.05,0.99-0.02c0.11-0.01,0.22-0.02,0.33-0.02h1.05c0.19-0.02,0.39-0.04,0.58-0.04c0.44,0.06,0.89,0.12,1.33,0.18
		c0.06,0.01,0.11,0.05,0.17,0.06c0.72-0.38,1.49-0.57,2.31-0.58c0.44,0.06,0.89,0.12,1.33,0.18c0.32,0.07,0.62,0.21,0.91,0.36
		c0.15-0.01,0.31-0.01,0.46-0.01c0.02,0,0.05-0.01,0.07-0.02c0.44-0.09,0.89-0.11,1.33-0.08c0.6-0.08,1.2-0.07,1.81,0.05
		c0.39,0,0.76,0.05,1.1,0.13c0.45-0.13,0.93-0.2,1.47-0.2c0.04,0,0.08,0.01,0.13,0.01c0.22-0.07,0.43-0.15,0.65-0.2
		c1.28-0.3,2.51-0.13,3.56,0.41c0.62-0.26,1.27-0.4,1.96-0.4c0.44,0.06,0.89,0.12,1.33,0.18c0.21,0.05,0.41,0.12,0.6,0.19
		c0.3-0.1,0.6-0.19,0.89-0.31c0.81-0.32,1.75-0.24,2.62,0.02c0.14-0.07,0.29-0.13,0.45-0.18c0-0.04,0-0.08,0-0.12
		C95.15,24.94,74.69,4.48,49.44,4.48z"/>
	<line class="st1" x1="95.15" y1="50.19" x2="3.76" y2="50.19"/>
	<path class="st2" d="M49.44,96.78c25.24,0,45.7-20.46,45.7-45.7c0-0.02,0-0.04,0-0.06c-0.1,0.01-0.19,0.02-0.29,0.02
		c-0.44-0.06-0.89-0.12-1.33-0.18c-0.06-0.02-0.12-0.05-0.18-0.07c-0.31,0.1-0.64,0.18-0.97,0.19c-0.64,0.14-1.29,0.12-1.93-0.07
		c-0.57,0.09-1.13,0.06-1.7-0.11c-0.99,0.36-2.06,0.4-3.1,0.17c-0.14-0.03-0.28-0.07-0.42-0.1c-0.37,0.1-0.74,0.15-1.14,0.13
		c-0.69,0.03-1.33-0.12-1.93-0.43c-0.24-0.08-0.46-0.2-0.68-0.32c-0.06-0.01-0.12-0.03-0.18-0.03c-0.32,0.14-0.65,0.24-0.98,0.31
		c-0.09,0.04-0.19,0.08-0.28,0.1c-0.36,0.07-0.99,0.14-1.36,0.18c-0.03,0-0.06,0.01-0.08,0.01c-0.09,0.01-0.19,0-0.28,0
		c-0.46,0-0.9-0.07-1.32-0.19c-0.22,0.05-0.45,0.09-0.68,0.1c-0.64,0.14-1.28,0.12-1.92-0.07c-0.58,0.09-1.16,0.05-1.73-0.13
		c-0.04,0-0.08,0.01-0.12,0.01c-0.66,0.15-1.33,0.12-1.99-0.09c-0.07-0.02-0.14-0.04-0.21-0.07c-0.26-0.1-0.51-0.22-0.77-0.33
		c-0.13-0.03-0.27-0.06-0.4-0.1c-0.37,0.21-0.76,0.38-1.19,0.5c-0.44,0.06-0.89,0.12-1.33,0.18c-0.38,0.01-0.74-0.03-1.09-0.12
		c-0.05,0.01-0.09,0.03-0.14,0.05c-0.44,0.06-0.89,0.12-1.33,0.18c-0.46,0.02-0.89-0.05-1.3-0.18c-0.44,0.06-0.88,0.12-1.33,0.18
		c-0.55,0.02-1.08-0.08-1.58-0.26c-0.5,0.17-1.06,0.26-1.68,0.26c-0.2,0-0.4-0.01-0.59-0.03c-0.31,0.06-0.63,0.1-0.96,0.1
		c-0.44-0.06-0.89-0.12-1.33-0.18c-0.33-0.09-0.64-0.23-0.94-0.38c-0.11,0.04-0.21,0.09-0.33,0.12c-0.51,0.16-1.02,0.21-1.52,0.16
		c-0.13,0.06-0.27,0.11-0.4,0.17c-0.66,0.21-1.33,0.24-1.99,0.09c-0.58-0.03-1.12-0.19-1.62-0.47c-0.04,0.01-0.08,0.04-0.12,0.05
		c-0.3,0.07-0.59,0.15-0.89,0.22c-0.63,0.17-1.26,0.21-1.9,0.14c-0.32,0.01-0.63-0.02-0.95-0.09c-0.21-0.01-0.42-0.05-0.62-0.1
		c-0.15-0.02-0.3-0.05-0.45-0.08c-0.02,0-0.04,0-0.06,0c-0.15-0.01-0.29-0.02-0.43-0.04c-0.25,0.04-0.5,0.06-0.77,0.05
		c-0.33,0-0.67,0-1,0.04c-0.04,0-0.08-0.01-0.12-0.01c-0.31,0.07-0.63,0.09-0.96,0.08c-0.13,0-0.26,0.01-0.39,0.02
		c-0.32,0.02-0.63,0-0.95-0.04c-0.33,0.08-0.67,0.11-1.03,0.1c-0.17,0-0.34,0.03-0.52,0.04c-0.15,0-0.3-0.02-0.45-0.03
		c-0.2,0.02-0.41,0.04-0.62,0.03h-0.78c-0.45,0-0.87-0.08-1.28-0.2c-0.15,0-0.29,0-0.44-0.01c-0.12,0.01-0.23,0.03-0.35,0.02
		c-0.13,0-0.25,0.01-0.38,0.02c-0.26,0.04-0.53,0.07-0.81,0.06c-0.12,0-0.23,0-0.35-0.01c-0.23,0.04-0.46,0.08-0.71,0.08
		c-0.33,0.04-0.66,0.05-0.99,0.02c-0.11,0.01-0.22,0.02-0.33,0.02h-1.05c-0.19,0.02-0.39,0.04-0.58,0.04
		c-0.44-0.06-0.89-0.12-1.33-0.18c-0.06-0.01-0.11-0.05-0.17-0.06c-0.72,0.38-1.49,0.57-2.31,0.58c-0.44-0.06-0.89-0.12-1.33-0.18
		c-0.32-0.07-0.62-0.21-0.91-0.36c-0.15,0.01-0.31,0.01-0.46,0.01c-0.02,0-0.05,0.01-0.07,0.02c-0.44,0.09-0.89,0.11-1.33,0.08
		c-0.6,0.08-1.2,0.07-1.81-0.05c-0.39,0-0.76-0.05-1.1-0.13c-0.45,0.13-0.93,0.2-1.47,0.2c-0.04,0-0.08-0.01-0.13-0.01
		c-0.22,0.07-0.43,0.15-0.65,0.2c-1.28,0.3-2.51,0.13-3.56-0.41c-0.62,0.26-1.27,0.4-1.96,0.4c-0.44-0.06-0.89-0.12-1.33-0.18
		c-0.21-0.05-0.41-0.12-0.6-0.19c-0.3,0.1-0.6,0.19-0.89,0.31C6,51.11,5.06,51.02,4.19,50.77c-0.14,0.07-0.29,0.13-0.45,0.18
		c0,0.04,0,0.08,0,0.12C3.74,76.31,24.2,96.78,49.44,96.78z"/>
</g>
<g id="Слой_2">
	<g>
		<g>
			<path class="st3" d="M54.22,12.66v6.98c0,1.93-2.11,3.49-4.72,3.49s-4.72-1.56-4.72-3.49v-6.98c0-1.93,2.11-3.49,4.72-3.49
				S54.22,10.72,54.22,12.66z"/>
		</g>
		<g>
			<path class="st3" d="M62.09,48.74H36.91c0-5.13,5.64-9.31,12.59-9.31S62.09,43.61,62.09,48.74z"/>
		</g>
		<g>
			<path class="st3" d="M36.91,48.74h25.19c0,1.2-0.3,2.84-0.87,4.67H37.77C37.21,51.59,36.91,49.94,36.91,48.74z"/>
		</g>
		<g>
			<path class="st3" d="M37.77,53.41h23.45c-1.83,6.02-6.39,13.97-11.73,13.97S39.6,59.43,37.77,53.41z"/>
		</g>
	</g>
	<g>
		<g>
			<path d="M49.5,68.55c-8.6,0-14.17-14.71-14.17-19.8c0-5.78,6.35-10.48,14.17-10.48s14.17,4.7,14.17,10.48
				C63.67,53.84,58.1,68.55,49.5,68.55z M49.5,40.6c-6.07,0-11.02,3.66-11.02,8.15c0,5.21,5.76,17.47,11.02,17.47
				s11.02-12.26,11.02-17.47C60.52,44.25,55.57,40.6,49.5,40.6z"/>
		</g>
		<g>
			<path d="M49.5,77.84c-0.87,0-1.57-0.52-1.57-1.16v-9.3c0-0.64,0.7-1.16,1.57-1.16c0.87,0,1.57,0.52,1.57,1.16v9.3
				C51.07,77.32,50.37,77.84,49.5,77.84z"/>
		</g>
		<g>
			<path d="M49.5,82.5c-2.6,0-4.72-1.57-4.72-3.49s2.12-3.49,4.72-3.49s4.72,1.57,4.72,3.49S52.1,82.5,49.5,82.5z M49.5,77.84
				c-0.87,0-1.57,0.52-1.57,1.16s0.71,1.16,1.57,1.16c0.87,0,1.57-0.52,1.57-1.16S50.37,77.84,49.5,77.84z"/>
		</g>
		<g>
			<path d="M54.22,13.82c-0.87,0-1.57-0.52-1.57-1.16c0-1.28-1.41-2.33-3.15-2.33s-3.15,1.04-3.15,2.33c0,0.64-0.7,1.16-1.57,1.16
				c-0.87,0-1.57-0.52-1.57-1.16c0-2.57,2.82-4.66,6.3-4.66s6.3,2.09,6.3,4.66C55.8,13.3,55.09,13.82,54.22,13.82z"/>
		</g>
		<g>
			<path d="M49.5,24.3c-3.47,0-6.3-2.09-6.3-4.66c0-0.64,0.7-1.16,1.57-1.16c0.87,0,1.57,0.52,1.57,1.16c0,1.28,1.41,2.33,3.15,2.33
				s3.15-1.04,3.15-2.33c0-0.64,0.7-1.16,1.57-1.16S55.8,19,55.8,19.64C55.8,22.21,52.97,24.3,49.5,24.3z"/>
		</g>
		<g>
			<path d="M54.22,20.8c-0.87,0-1.57-0.52-1.57-1.16v-6.98c0-0.64,0.7-1.16,1.57-1.16s1.57,0.52,1.57,1.16v6.98
				C55.8,20.28,55.09,20.8,54.22,20.8z"/>
		</g>
		<g>
			<path d="M44.78,20.8c-0.87,0-1.57-0.52-1.57-1.16v-6.98c0-0.64,0.7-1.16,1.57-1.16c0.87,0,1.57,0.52,1.57,1.16v6.98
				C46.35,20.28,45.65,20.8,44.78,20.8z"/>
		</g>
		<g>
			<path d="M49.5,40.6c-0.87,0-1.57-0.52-1.57-1.16v-16.3c0-0.64,0.7-1.16,1.57-1.16c0.87,0,1.57,0.52,1.57,1.16v16.3
				C51.07,40.08,50.37,40.6,49.5,40.6z"/>
		</g>
		<g>
			<path d="M62.09,49.91H36.91c-0.87,0-1.57-0.52-1.57-1.16c0-0.64,0.7-1.16,1.57-1.16h25.19c0.87,0,1.57,0.52,1.57,1.16
				C63.67,49.39,62.96,49.91,62.09,49.91z"/>
		</g>
		<g>
			<path d="M61.23,54.57H37.77c-0.87,0-1.57-0.52-1.57-1.16c0-0.64,0.7-1.16,1.57-1.16h23.47c0.87,0,1.57,0.52,1.57,1.16
				C62.81,54.05,62.1,54.57,61.23,54.57z"/>
		</g>
	</g>
</g>
</svg>
