<?xml version="1.0" encoding="utf-8"?>
<!-- Generator: Adobe Illustrator 27.0.0, SVG Export Plug-In . SVG Version: 6.00 Build 0)  -->
<svg version="1.1" id="Слой_1" xmlns="http://www.w3.org/2000/svg" xmlns:xlink="http://www.w3.org/1999/xlink" x="0px" y="0px"
	 viewBox="0 0 32 32" style="enable-background:new 0 0 32 32;" xml:space="preserve">
<style type="text/css">
	.st0{fill:#87CFE5;stroke:#000000;stroke-miterlimit:10;}
	.st1{fill:none;stroke:#000000;stroke-miterlimit:10;}
	.st2{fill:#275BA7;stroke:#000000;stroke-miterlimit:10;}
	.st3{fill:#E62C35;}
</style>
<path class="st0" d="M16.11,5C9.71,5,4.52,10.2,4.52,16.6c0,0,0,0.01,0,0.01c0.02,0,0.05,0,0.07,0c0.11,0.02,0.22,0.03,0.34,0.05
	c0.02,0,0.03,0.01,0.05,0.02c0.08-0.03,0.16-0.05,0.25-0.05c0.16-0.04,0.33-0.03,0.49,0.02c0.14-0.02,0.29-0.01,0.43,0.03
	c0.25-0.09,0.52-0.1,0.79-0.04c0.04,0.01,0.07,0.02,0.11,0.03c0.09-0.02,0.19-0.04,0.29-0.03c0.17-0.01,0.34,0.03,0.49,0.11
	c0.06,0.02,0.12,0.05,0.17,0.08c0.02,0,0.03,0.01,0.05,0.01c0.08-0.04,0.16-0.06,0.25-0.08c0.02-0.01,0.05-0.02,0.07-0.02
	c0.09-0.02,0.25-0.04,0.34-0.05c0.01,0,0.01,0,0.02,0c0.02,0,0.05,0,0.07,0c0.12,0,0.23,0.02,0.34,0.05
	c0.06-0.01,0.11-0.02,0.17-0.03c0.16-0.04,0.32-0.03,0.49,0.02c0.15-0.02,0.29-0.01,0.44,0.03c0.01,0,0.02,0,0.03,0
	c0.17-0.04,0.34-0.03,0.51,0.02c0.02,0.01,0.04,0.01,0.05,0.02c0.07,0.02,0.13,0.05,0.2,0.08c0.03,0.01,0.07,0.01,0.1,0.03
	c0.09-0.05,0.19-0.1,0.3-0.13c0.11-0.02,0.22-0.03,0.34-0.05c0.1,0,0.19,0.01,0.28,0.03c0.01,0,0.02-0.01,0.03-0.01
	c0.11-0.02,0.22-0.03,0.34-0.05c0.12,0,0.23,0.01,0.33,0.05c0.11-0.02,0.22-0.03,0.34-0.05c0.14-0.01,0.27,0.02,0.4,0.07
	c0.13-0.04,0.27-0.07,0.43-0.07c0.05,0,0.1,0,0.15,0.01c0.08-0.02,0.16-0.03,0.24-0.03c0.11,0.02,0.22,0.03,0.34,0.05
	c0.08,0.02,0.16,0.06,0.24,0.1c0.03-0.01,0.05-0.02,0.08-0.03c0.13-0.04,0.26-0.05,0.39-0.04c0.03-0.01,0.07-0.03,0.1-0.04
	c0.17-0.05,0.34-0.06,0.51-0.02c0.15,0.01,0.28,0.05,0.41,0.12c0.01,0,0.02-0.01,0.03-0.01c0.08-0.02,0.15-0.04,0.23-0.06
	c0.16-0.04,0.32-0.05,0.48-0.04c0.08,0,0.16,0,0.24,0.02c0.05,0,0.11,0.01,0.16,0.02c0.04,0,0.08,0.01,0.11,0.02
	c0.01,0,0.01,0,0.02,0c0.04,0,0.07,0.01,0.11,0.01c0.06-0.01,0.13-0.02,0.19-0.01c0.08,0,0.17,0,0.25-0.01c0.01,0,0.02,0,0.03,0
	c0.08-0.02,0.16-0.02,0.24-0.02c0.03,0,0.07,0,0.1,0c0.08,0,0.16,0,0.24,0.01c0.08-0.02,0.17-0.03,0.26-0.02
	c0.04,0,0.09-0.01,0.13-0.01c0.04,0,0.08,0,0.11,0.01c0.05-0.01,0.1-0.01,0.16-0.01h0.2c0.11,0,0.22,0.02,0.33,0.05
	c0.04,0,0.07,0,0.11,0c0.03,0,0.06-0.01,0.09-0.01c0.03,0,0.06,0,0.1,0c0.07-0.01,0.13-0.02,0.21-0.01c0.03,0,0.06,0,0.09,0
	c0.06-0.01,0.12-0.02,0.18-0.02c0.08-0.01,0.17-0.01,0.25-0.01c0.03,0,0.05-0.01,0.08,0h0.27c0.05-0.01,0.1-0.01,0.15-0.01
	c0.11,0.02,0.22,0.03,0.34,0.05c0.02,0,0.03,0.01,0.04,0.02c0.18-0.1,0.38-0.15,0.59-0.15c0.11,0.02,0.22,0.03,0.34,0.05
	c0.08,0.02,0.16,0.05,0.23,0.09c0.04,0,0.08,0,0.12,0c0.01,0,0.01,0,0.02,0c0.11-0.02,0.23-0.03,0.34-0.02
	c0.15-0.02,0.31-0.02,0.46,0.01c0.1,0,0.19,0.01,0.28,0.03c0.11-0.03,0.24-0.05,0.37-0.05c0.01,0,0.02,0,0.03,0
	c0.05-0.02,0.11-0.04,0.17-0.05c0.32-0.08,0.64-0.03,0.9,0.1c0.16-0.07,0.32-0.1,0.5-0.1c0.11,0.02,0.22,0.03,0.34,0.05
	c0.05,0.01,0.1,0.03,0.15,0.05c0.08-0.02,0.15-0.05,0.23-0.08c0.21-0.08,0.44-0.06,0.66,0c0.04-0.02,0.07-0.03,0.11-0.05
	c0-0.01,0-0.02,0-0.03C27.71,10.2,22.52,5,16.11,5z"/>
<line class="st1" x1="27.71" y1="16.6" x2="4.52" y2="16.6"/>
<path class="st2" d="M16.11,28.42c6.4,0,11.59-5.19,11.59-11.59c0,0,0-0.01,0-0.01c-0.02,0-0.05,0-0.07,0
	c-0.11-0.02-0.22-0.03-0.34-0.05c-0.02,0-0.03-0.01-0.05-0.02c-0.08,0.03-0.16,0.05-0.25,0.05c-0.16,0.04-0.33,0.03-0.49-0.02
	c-0.14,0.02-0.29,0.01-0.43-0.03c-0.25,0.09-0.52,0.1-0.79,0.04c-0.04-0.01-0.07-0.02-0.11-0.03C25.1,16.8,25,16.81,24.9,16.8
	c-0.17,0.01-0.34-0.03-0.49-0.11c-0.06-0.02-0.12-0.05-0.17-0.08c-0.02,0-0.03-0.01-0.05-0.01c-0.08,0.04-0.16,0.06-0.25,0.08
	c-0.02,0.01-0.05,0.02-0.07,0.02c-0.09,0.02-0.25,0.04-0.34,0.05c-0.01,0-0.01,0-0.02,0c-0.02,0-0.05,0-0.07,0
	c-0.12,0-0.23-0.02-0.34-0.05c-0.06,0.01-0.11,0.02-0.17,0.03c-0.16,0.04-0.32,0.03-0.49-0.02c-0.15,0.02-0.29,0.01-0.44-0.03
	c-0.01,0-0.02,0-0.03,0c-0.17,0.04-0.34,0.03-0.51-0.02c-0.02-0.01-0.04-0.01-0.05-0.02c-0.07-0.02-0.13-0.05-0.2-0.08
	c-0.03-0.01-0.07-0.01-0.1-0.03c-0.09,0.05-0.19,0.1-0.3,0.13c-0.11,0.02-0.22,0.03-0.34,0.05c-0.1,0-0.19-0.01-0.28-0.03
	c-0.01,0-0.02,0.01-0.03,0.01c-0.11,0.02-0.22,0.03-0.34,0.05c-0.12,0-0.23-0.01-0.33-0.05c-0.11,0.02-0.22,0.03-0.34,0.05
	c-0.14,0.01-0.27-0.02-0.4-0.07c-0.13,0.04-0.27,0.07-0.43,0.07c-0.05,0-0.1,0-0.15-0.01c-0.08,0.02-0.16,0.03-0.24,0.03
	c-0.11-0.02-0.22-0.03-0.34-0.05c-0.08-0.02-0.16-0.06-0.24-0.1c-0.03,0.01-0.05,0.02-0.08,0.03c-0.13,0.04-0.26,0.05-0.39,0.04
	c-0.03,0.01-0.07,0.03-0.1,0.04c-0.17,0.05-0.34,0.06-0.51,0.02c-0.15-0.01-0.28-0.05-0.41-0.12c-0.01,0-0.02,0.01-0.03,0.01
	c-0.08,0.02-0.15,0.04-0.23,0.06c-0.16,0.04-0.32,0.05-0.48,0.04c-0.08,0-0.16,0-0.24-0.02c-0.05,0-0.11-0.01-0.16-0.02
	c-0.04,0-0.08-0.01-0.11-0.02c-0.01,0-0.01,0-0.02,0c-0.04,0-0.07-0.01-0.11-0.01c-0.06,0.01-0.13,0.02-0.19,0.01
	c-0.08,0-0.17,0-0.25,0.01c-0.01,0-0.02,0-0.03,0c-0.08,0.02-0.16,0.02-0.24,0.02c-0.03,0-0.07,0-0.1,0c-0.08,0-0.16,0-0.24-0.01
	c-0.08,0.02-0.17,0.03-0.26,0.02c-0.04,0-0.09,0.01-0.13,0.01c-0.04,0-0.08,0-0.11-0.01c-0.05,0.01-0.1,0.01-0.16,0.01h-0.2
	c-0.11,0-0.22-0.02-0.33-0.05c-0.04,0-0.07,0-0.11,0c-0.03,0-0.06,0.01-0.09,0.01c-0.03,0-0.06,0-0.1,0
	c-0.07,0.01-0.13,0.02-0.21,0.01c-0.03,0-0.06,0-0.09,0c-0.06,0.01-0.12,0.02-0.18,0.02c-0.08,0.01-0.17,0.01-0.25,0.01
	c-0.03,0-0.05,0.01-0.08,0h-0.27c-0.05,0.01-0.1,0.01-0.15,0.01c-0.11-0.02-0.22-0.03-0.34-0.05c-0.02,0-0.03-0.01-0.04-0.02
	c-0.18,0.1-0.38,0.15-0.59,0.15c-0.11-0.02-0.22-0.03-0.34-0.05c-0.08-0.02-0.16-0.05-0.23-0.09c-0.04,0-0.08,0-0.12,0
	c-0.01,0-0.01,0-0.02,0c-0.11,0.02-0.23,0.03-0.34,0.02c-0.15,0.02-0.31,0.02-0.46-0.01c-0.1,0-0.19-0.01-0.28-0.03
	c-0.11,0.03-0.24,0.05-0.37,0.05c-0.01,0-0.02,0-0.03,0c-0.05,0.02-0.11,0.04-0.17,0.05c-0.32,0.08-0.64,0.03-0.9-0.1
	c-0.16,0.07-0.32,0.1-0.5,0.1c-0.11-0.02-0.22-0.03-0.34-0.05c-0.05-0.01-0.1-0.03-0.15-0.05c-0.08,0.02-0.15,0.05-0.23,0.08
	c-0.21,0.08-0.44,0.06-0.66,0c-0.04,0.02-0.07,0.03-0.11,0.05c0,0.01,0,0.02,0,0.03C4.52,23.23,9.71,28.42,16.11,28.42z"/>
<g>
	<g>
		<path class="st3" d="M17.33,7.08v1.77c0,0.49-0.54,0.89-1.2,0.89s-1.2-0.4-1.2-0.89V7.08c0-0.49,0.54-0.89,1.2-0.89
			S17.33,6.59,17.33,7.08z"/>
	</g>
	<g>
		<path class="st3" d="M19.32,16.23h-6.39c0-1.3,1.43-2.36,3.19-2.36S19.32,14.93,19.32,16.23z"/>
	</g>
	<g>
		<path class="st3" d="M12.93,16.23h6.39c0,0.3-0.08,0.72-0.22,1.18h-5.95C13.01,16.96,12.93,16.54,12.93,16.23z"/>
	</g>
	<g>
		<path class="st3" d="M13.15,17.42h5.95c-0.46,1.53-1.62,3.54-2.97,3.54S13.62,18.94,13.15,17.42z"/>
	</g>
</g>
<g>
	<g>
		<path d="M16.13,21.26c-2.18,0-3.59-3.73-3.59-5.02c0-1.47,1.61-2.66,3.59-2.66s3.59,1.19,3.59,2.66
			C19.72,17.52,18.31,21.26,16.13,21.26z M16.13,14.17c-1.54,0-2.8,0.93-2.8,2.07c0,1.32,1.46,4.43,2.8,4.43s2.8-3.11,2.8-4.43
			C18.92,15.09,17.67,14.17,16.13,14.17z"/>
	</g>
	<g>
		<path d="M16.13,23.61c-0.22,0-0.4-0.13-0.4-0.3v-2.36c0-0.16,0.18-0.3,0.4-0.3c0.22,0,0.4,0.13,0.4,0.3v2.36
			C16.53,23.48,16.35,23.61,16.13,23.61z"/>
	</g>
	<g>
		<path d="M16.13,24.8c-0.66,0-1.2-0.4-1.2-0.89c0-0.49,0.54-0.89,1.2-0.89c0.66,0,1.2,0.4,1.2,0.89
			C17.33,24.4,16.79,24.8,16.13,24.8z M16.13,23.61c-0.22,0-0.4,0.13-0.4,0.3c0,0.16,0.18,0.3,0.4,0.3c0.22,0,0.4-0.13,0.4-0.3
			C16.53,23.75,16.35,23.61,16.13,23.61z"/>
	</g>
	<g>
		<path d="M17.33,7.37c-0.22,0-0.4-0.13-0.4-0.3c0-0.33-0.36-0.59-0.8-0.59c-0.44,0-0.8,0.26-0.8,0.59c0,0.16-0.18,0.3-0.4,0.3
			c-0.22,0-0.4-0.13-0.4-0.3c0-0.65,0.72-1.18,1.6-1.18s1.6,0.53,1.6,1.18C17.73,7.24,17.55,7.37,17.33,7.37z"/>
	</g>
	<g>
		<path d="M16.13,10.03c-0.88,0-1.6-0.53-1.6-1.18c0-0.16,0.18-0.3,0.4-0.3c0.22,0,0.4,0.13,0.4,0.3c0,0.33,0.36,0.59,0.8,0.59
			c0.44,0,0.8-0.26,0.8-0.59c0-0.16,0.18-0.3,0.4-0.3s0.4,0.13,0.4,0.3C17.73,9.5,17.01,10.03,16.13,10.03z"/>
	</g>
	<g>
		<path d="M17.33,9.15c-0.22,0-0.4-0.13-0.4-0.3V7.08c0-0.16,0.18-0.3,0.4-0.3s0.4,0.13,0.4,0.3v1.77
			C17.73,9.01,17.55,9.15,17.33,9.15z"/>
	</g>
	<g>
		<path d="M14.93,9.15c-0.22,0-0.4-0.13-0.4-0.3V7.08c0-0.16,0.18-0.3,0.4-0.3c0.22,0,0.4,0.13,0.4,0.3v1.77
			C15.33,9.01,15.15,9.15,14.93,9.15z"/>
	</g>
	<g>
		<path d="M16.13,14.17c-0.22,0-0.4-0.13-0.4-0.3V9.74c0-0.16,0.18-0.3,0.4-0.3c0.22,0,0.4,0.13,0.4,0.3v4.14
			C16.53,14.03,16.35,14.17,16.13,14.17z"/>
	</g>
	<g>
		<path d="M19.32,16.53h-6.39c-0.22,0-0.4-0.13-0.4-0.3s0.18-0.3,0.4-0.3h6.39c0.22,0,0.4,0.13,0.4,0.3S19.54,16.53,19.32,16.53z"/>
	</g>
	<g>
		<path d="M19.11,17.71h-5.95c-0.22,0-0.4-0.13-0.4-0.3c0-0.16,0.18-0.3,0.4-0.3h5.95c0.22,0,0.4,0.13,0.4,0.3
			C19.5,17.58,19.33,17.71,19.11,17.71z"/>
	</g>
</g>
</svg>
